<?xml version="1.0" encoding="iso-8859-1"?>
<!-- Uploaded to: SVG Repo, www.svgrepo.com, Generator: SVG Repo Mixer Tools -->
<svg height="800px" width="800px" version="1.1" id="Layer_1" xmlns="http://www.w3.org/2000/svg" xmlns:xlink="http://www.w3.org/1999/xlink" 
	 viewBox="0 0 512 512" xml:space="preserve">
<g transform="translate(1 1)">
	<path style="fill:#FCC309;" d="M502.467,276.333H7.533v-69.12c0-5.12,1.707-10.24,5.12-13.653L121.027,77.507
		c3.413-3.413,9.387-5.973,14.507-5.973h366.933V276.333z"/>
	<path style="fill:#54C9FD;" d="M58.733,276.333v-38.4c0-5.12,1.707-10.24,5.12-13.653l88.747-95.573
		c4.267-3.413,9.387-5.973,15.36-5.973h334.507v153.6H58.733z"/>
	<path style="fill:#FFFFFF;" d="M38.253,193.56L146.627,77.507c3.413-3.413,9.387-5.973,14.507-5.973h-25.6
		c-5.12,0-11.093,2.56-14.507,5.973L12.653,193.56c-3.413,3.413-5.12,8.533-5.12,13.653v69.12h25.6v-69.12
		C33.133,202.093,34.84,197.827,38.253,193.56"/>
	<polygon style="fill:#FD9808;" points="476.867,276.333 502.467,276.333 502.467,71.533 476.867,71.533 	"/>
	<polygon style="fill:#33A9F8;" points="476.867,276.333 502.467,276.333 502.467,122.733 476.867,122.733 	"/>
	<polygon style="fill:#FFDD09;" points="7.533,438.467 502.467,438.467 502.467,276.333 7.533,276.333 	"/>
	<polygon style="fill:#FD9808;" points="476.867,438.467 502.467,438.467 502.467,276.333 476.867,276.333 	"/>
	<polygon style="fill:#FFFFFF;" points="7.533,438.467 33.133,438.467 33.133,276.333 7.533,276.333 	"/>
	<path d="M502.467,284.867H7.533c-5.12,0-8.533-3.413-8.533-8.533v-69.12c0-6.827,2.56-14.507,7.68-19.627l108.373-115.2
		c5.12-5.973,12.8-9.387,20.48-9.387h366.933c5.12,0,8.533,3.413,8.533,8.533v204.8C511,281.453,507.587,284.867,502.467,284.867z
		 M16.067,267.8h477.867V80.067h-358.4c-3.413,0-5.973,1.707-8.533,3.413L19.48,199.533c-2.56,2.56-3.413,5.12-3.413,7.68V267.8z"/>
	<path d="M502.467,284.867H58.733c-5.12,0-8.533-3.413-8.533-8.533v-38.4c0-6.827,2.56-14.507,7.68-19.627l88.747-94.72
		c5.12-5.973,12.8-9.387,21.333-9.387h334.507c5.12,0,8.533,3.413,8.533,8.533v153.6C511,281.453,507.587,284.867,502.467,284.867z
		 M67.267,267.8h426.667V131.267H167.96c-3.413,0-5.973,1.707-8.533,3.413L70.68,230.253c-2.56,1.707-3.413,5.12-3.413,7.68V267.8z"
		/>
	<path d="M502.467,447H7.533C2.413,447-1,443.587-1,438.467V276.333c0-5.12,3.413-8.533,8.533-8.533h494.933
		c5.12,0,8.533,3.413,8.533,8.533v162.133C511,443.587,507.587,447,502.467,447z M16.067,429.933h477.867V284.867H16.067V429.933z"
		/>
	<path d="M255,404.333c-5.12,0-8.533-3.413-8.533-8.533V319c0-5.12,3.413-8.533,8.533-8.533s8.533,3.413,8.533,8.533v76.8
		C263.533,400.92,260.12,404.333,255,404.333z"/>
	<path d="M229.4,353.133c-2.56,0-4.267-0.853-5.973-2.56c-3.413-3.413-3.413-8.533,0-11.947l25.6-25.6
		c3.413-3.413,8.533-3.413,11.947,0s3.413,8.533,0,11.947l-25.6,25.6C233.667,352.28,231.96,353.133,229.4,353.133z"/>
	<path d="M280.6,353.133c-2.56,0-4.267-0.853-5.973-2.56l-25.6-25.6c-3.413-3.413-3.413-8.533,0-11.947s8.533-3.413,11.947,0
		l25.6,25.6c3.413,3.413,3.413,8.533,0,11.947C284.867,352.28,283.16,353.133,280.6,353.133z"/>
</g>
</svg>